<svg id="Layer_1" data-name="Layer 1" xmlns="http://www.w3.org/2000/svg" viewBox="0 0 1000.67 1000"><defs><style>.cls-1{fill:#fff;}.cls-2{fill:#231f20;fill-rule:evenodd;}</style></defs><circle class="cls-1" cx="500.34" cy="500" r="500" transform="translate(-207.01 500.24) rotate(-45)"/><path class="cls-2" d="M353.28,181.49H647.4c94.48,0,172.2,77.73,172.2,172.21V646.3c0,94.48-77.72,172.21-172.2,172.21H353.28c-94.49,0-172.21-77.73-172.21-172.21V353.7c0-94.48,77.72-172.21,172.21-172.21Zm318.5,111.25h0c19.81,0,36.58,16.77,36.58,36.58h0c0,19.81-16.77,36.57-36.58,36.57h0c-21.33,0-36.57-16.76-36.57-36.57h0c0-19.81,15.24-36.58,36.57-36.58ZM499.57,326.27h1.53c94.48,0,173.73,79.25,173.73,173.73h0c0,96-79.25,173.73-173.73,173.73h-1.53c-94.48,0-172.2-77.72-172.2-173.73h0c0-94.48,77.72-173.73,172.2-173.73Zm0,59.43h1.53c62.48,0,114.29,51.82,114.29,114.3h0c0,64-51.81,115.82-114.29,115.82h-1.53C437.09,615.82,385.28,564,385.28,500h0c0-62.48,51.81-114.3,114.29-114.3ZM354.8,236.36H645.87A119,119,0,0,1,764.74,355.23V644.78A119,119,0,0,1,645.87,763.64H354.8A119,119,0,0,1,235.93,644.78V355.23A119,119,0,0,1,354.8,236.36Z"/></svg>