<svg id="Layer_1" data-name="Layer 1" xmlns="http://www.w3.org/2000/svg" viewBox="0 0 1000.67 1000"><defs><style>.cls-1{fill:#fff;}.cls-2{fill:#231f20;fill-rule:evenodd;}</style></defs><circle class="cls-1" cx="500.34" cy="500" r="500" transform="translate(-207.01 500.24) rotate(-45)"/><path class="cls-2" d="M763.9,345.74c-30.73-4.19-57.27-20.95-79.62-46.1-26.55-29.33-41.91-68.45-40.51-106.17H533.41v440c0,51.69-41.91,93.6-95,93.6-30.73,0-58.67-15.37-76.83-39.12-11.17-15.36-16.76-34.92-16.76-54.48a93.6,93.6,0,0,1,93.59-93.59,89.88,89.88,0,0,1,27.94,4.19V432.35a172.74,172.74,0,0,0-27.94-2.79h-4.19c-111.75,2.79-199.76,93.59-199.76,204a204.17,204.17,0,0,0,54.48,138.3c37.72,39.12,90.8,64.26,149.47,64.26,113.16,0,205.36-90.8,205.36-202.56V404.41c41.9,37.72,96.39,55.88,152.26,51.69V345.74C784.86,348.54,773.68,348.54,763.9,345.74Z"/></svg>