<svg id="Layer_1" data-name="Layer 1" xmlns="http://www.w3.org/2000/svg" viewBox="0 0 1000.67 1000"><defs><style>.cls-1{fill:#fff;}.cls-2{fill:#231f20;fill-rule:evenodd;}</style></defs><circle class="cls-1" cx="500.34" cy="500" r="500" transform="translate(-207.01 500.24) rotate(-45)"/><path class="cls-2" d="M387.94,355.49c17.66-11.24,28.9-3.21,35.33,14.45l16.05,41.75s11.24,22.48-17.66,45c-4.82,3.21-4.82,3.21-3.21,11.24,6.42,19.26,32.11,77.07,114,122,8,4.81,9.63,4.81,17.66-1.61L571,567.44c14.46-12.85,22.48-17.67,35.33-8,9.63,6.42,19.27,14.45,28.9,20.87,9.63,8,25.69,17.66,9.63,36.93l-14.45,17.66c-20.87,25.69-38.53,27.3-65.83,20.88C460.2,628.45,383.13,554.59,349.41,450.23c-11.24-40.15,4.81-73.86,38.53-94.74Zm112.4-171.8a316.31,316.31,0,0,1,0,632.62c-48.17,0-93.13-9.64-133.27-28.9l-168.59,28.9,22.48-167-1.61-3.21a317,317,0,0,1,281-462.42Zm-199.1,562,45-8,27.29-4.81a261.16,261.16,0,0,0,126.85,32.11c146.11,0,264.92-118.82,264.92-264.93S646.45,235.07,500.34,235.07,235.41,353.89,235.41,500c0,53,16.06,101.15,41.74,142.9L273.94,667l-6.42,48.17-4.82,36.93Z"/></svg>